<?xml version="1.0" encoding="UTF-8" standalone="no"?>
<!-- Created with Inkscape (http://www.inkscape.org/) -->

<svg
   xmlns:dc="http://purl.org/dc/elements/1.1/"
   xmlns:cc="http://creativecommons.org/ns#"
   xmlns:rdf="http://www.w3.org/1999/02/22-rdf-syntax-ns#"
   xmlns:svg="http://www.w3.org/2000/svg"
   xmlns="http://www.w3.org/2000/svg"
   version="1.1"
   width="233.85826"
   height="122.74477"
   id="svg2">
  <defs
     id="defs4" />
  <metadata
     id="metadata7">
    <rdf:RDF>
      <cc:Work
         rdf:about="">
        <dc:format>image/svg+xml</dc:format>
        <dc:type
           rdf:resource="http://purl.org/dc/dcmitype/StillImage" />
        <dc:title></dc:title>
      </cc:Work>
    </rdf:RDF>
  </metadata>
  <g
     transform="translate(10.629922,-937.8402)"
     id="layer1">
    <g
       transform="matrix(1.2586566,0,0,1.2586566,-220.2784,601.46504)"
       id="g3884">
      <g
         id="text2985"
         style="font-size:32.6950531px;font-style:normal;font-variant:normal;font-weight:normal;font-stretch:normal;text-align:start;line-height:125%;letter-spacing:0px;word-spacing:0px;writing-mode:lr-tb;text-anchor:start;fill:#000000;fill-opacity:1;stroke:none;font-family:cmr10;-inkscape-font-specification:cmr10">
        <path
           d="m 180.69415,336.6942 c 0.78757,0.95787 1.74543,1.70819 2.87359,2.25098 1.13878,0.54279 2.32546,0.81418 3.56006,0.81418 1.21327,0 2.31482,-0.30864 3.30462,-0.92593 0.98978,-0.61729 1.48467,-1.49533 1.48469,-2.63413 l 0,-2.74587 c -2e-5,-0.69178 -1.36231,-1.03768 -4.08688,-1.03768 l 0,-1.14944 9.37109,0 0,1.14944 c -0.69181,0 -1.23992,0.0585 -1.64433,0.1756 -0.40445,0.11708 -0.60667,0.40444 -0.60665,0.86208 l 0,6.44961 c -2e-5,0.0745 -0.032,0.14368 -0.0958,0.20754 -0.0532,0.0532 -0.1171,0.0798 -0.19158,0.0798 -0.20223,0 -0.54281,-0.23947 -1.02172,-0.7184 -0.4683,-0.47893 -0.84081,-0.90464 -1.1175,-1.27715 -0.53217,0.91529 -1.36764,1.59644 -2.50641,2.04344 -1.13881,0.447 -2.33082,0.67051 -3.57602,0.67051 -2.11795,0 -4.04964,-0.54279 -5.79507,-1.62837 -1.7348,-1.09622 -3.10774,-2.5543 -4.11881,-4.37424 -1.01108,-1.83058 -1.51662,-3.79419 -1.51662,-5.89086 0,-1.54321 0.29268,-3.04386 0.87804,-4.50195 0.58536,-1.45807 1.39954,-2.74054 2.44255,-3.84742 1.05364,-1.10684 2.27758,-1.96892 3.67181,-2.58623 1.39421,-0.62791 2.87358,-0.94187 4.4381,-0.9419 1.12813,3e-5 2.19242,0.24481 3.19287,0.73436 1.01106,0.47896 1.91039,1.1601 2.69798,2.04344 l 1.89977,-2.68201 c 0.12769,-0.0638 0.20219,-0.0958 0.2235,-0.0958 l 0.23946,0 c 0.0638,3e-5 0.12237,0.0266 0.17561,0.0798 0.0532,0.0532 0.0798,0.1171 0.0798,0.19158 l 0,8.8283 c -2e-5,0.19159 -0.0852,0.28737 -0.25543,0.28736 l -0.59068,0 c -0.20224,1e-5 -0.30334,-0.0958 -0.30332,-0.28736 -2e-5,-0.62792 -0.12774,-1.33035 -0.38315,-2.1073 -0.2448,-0.77691 -0.56409,-1.51128 -0.95786,-2.20308 -0.38316,-0.70242 -0.83017,-1.31971 -1.34101,-1.85187 -1.22395,-1.19199 -2.62882,-1.78799 -4.2146,-1.78801 -1.2133,2e-5 -2.37338,0.27141 -3.48023,0.81418 -1.10687,0.54281 -2.03813,1.29314 -2.79377,2.25098 -0.79822,1.02174 -1.35165,2.18714 -1.66029,3.4962 -0.30865,1.29845 -0.46298,2.68735 -0.46297,4.1667 -1e-5,3.34189 0.72903,5.90151 2.18712,7.67887"
           id="path3846" />
        <path
           d="m 199.85141,340.1904 0,-1.14944 c 2.24565,0 3.36848,-0.64389 3.36848,-1.93169 l 0,-17.91203 c -0.71308,-0.1277 -1.8359,-0.19155 -3.36848,-0.19157 l 0,-1.14944 6.25804,0 c 0.10642,2e-5 0.18092,0.0426 0.2235,0.12771 l 11.57417,17.034 0,-14.08058 c -2e-5,-1.28778 -1.12284,-1.93167 -3.36848,-1.93169 l 0,-1.14944 7.77465,0 0,1.14944 c -2.23503,2e-5 -3.35254,0.64391 -3.35252,1.93169 l 0,18.96568 c -2e-5,0.0639 -0.0426,0.12772 -0.12771,0.19157 -0.0852,0.0639 -0.15435,0.0958 -0.20754,0.0958 l -0.39911,0 c -0.10645,0 -0.18095,-0.0426 -0.2235,-0.12772 l -13.72937,-20.2109 0,17.25749 c 0,1.2878 1.12282,1.93169 3.36849,1.93169 l 0,1.14944 -7.79062,0"
           id="path3848" />
        <path
           d="m 227.74118,332.79889 0,-12.75554 c 0,-0.69177 -1.12283,-1.03766 -3.36848,-1.03768 l 0,-1.14944 9.78617,0 0,1.14944 c -2.24567,2e-5 -3.3685,0.34591 -3.36849,1.03768 l 0,12.62783 c -1e-5,1.21329 0.16496,2.36273 0.4949,3.4483 0.34056,1.07494 0.90464,1.95298 1.69222,2.63412 0.79821,0.67051 1.83589,1.00576 3.11306,1.00576 1.2452,0 2.34142,-0.32461 3.28866,-0.97383 0.9472,-0.65986 1.67624,-1.53257 2.18712,-2.61815 0.51084,-1.08558 0.76627,-2.25098 0.76629,-3.4962 l 0,-11.73382 c -2e-5,-1.28778 -1.12285,-1.93167 -3.36849,-1.93169 l 0,-1.14944 7.87044,0 0,1.14944 c -2.23503,2e-5 -3.35254,0.64391 -3.35252,1.93169 l 0,11.86153 c -2e-5,1.01108 -0.18095,2.00088 -0.54279,2.96938 -0.35123,0.9685 -0.86741,1.84654 -1.54854,2.63412 -0.67052,0.77693 -1.46342,1.3889 -2.37869,1.8359 -0.91531,0.447 -1.88914,0.67051 -2.92148,0.67051 -1.44745,0 -2.82039,-0.36186 -4.11882,-1.08558 -1.2878,-0.72372 -2.31484,-1.70819 -3.08112,-2.95341 -0.7663,-1.24522 -1.14944,-2.60219 -1.14944,-4.07092"
           id="path3850" />
        <path
           d="m 259.89345,340.1904 0,-1.14944 c 2.24565,0 3.36848,-0.34589 3.36848,-1.03768 l 0,-17.95993 c 0,-0.69177 -1.12283,-1.03766 -3.36848,-1.03768 l 0,-1.14944 10.26509,0 c 1.22393,2e-5 2.5064,0.22352 3.84742,0.6705 1.35163,0.43638 2.47978,1.10689 3.38445,2.01152 0.90463,0.90466 1.35695,1.98492 1.35697,3.24077 -2e-5,0.9153 -0.27673,1.73481 -0.83015,2.45851 -0.5428,0.71309 -1.24524,1.31441 -2.10729,1.80397 -0.85145,0.47895 -1.72417,0.82484 -2.61816,1.03769 0.97913,0.34058 1.83588,0.88337 2.57026,1.62837 0.73435,0.74501 1.17603,1.59644 1.32505,2.5543 l 0.46296,2.90552 c 0.21284,1.30908 0.43634,2.28822 0.67051,2.93744 0.23412,0.63858 0.7503,0.95786 1.54854,0.95786 0.68113,0 1.18667,-0.31396 1.51662,-0.94189 0.34055,-0.63858 0.51084,-1.33037 0.51086,-2.07537 -2e-5,-0.0745 0.0319,-0.13836 0.0958,-0.19158 0.0745,-0.0639 0.14898,-0.0958 0.22351,-0.0958 l 0.30332,0 c 0.21283,0 0.31926,0.14368 0.31929,0.43104 -3e-5,0.596 -0.1171,1.18136 -0.35122,1.75608 -0.23417,0.56407 -0.57474,1.03236 -1.02172,1.40486 -0.43638,0.3725 -0.95788,0.55876 -1.56451,0.55876 -1.57517,0 -2.93214,-0.38847 -4.07092,-1.1654 -1.12816,-0.78758 -1.69224,-1.93701 -1.69222,-3.44831 l 0,-2.90552 c -2e-5,-1.08557 -0.37784,-2.01682 -1.13347,-2.79376 -0.75566,-0.77693 -1.6816,-1.16539 -2.7778,-1.1654 l -3.92724,0 0,8.57287 c -1e-5,0.69179 1.12282,1.03768 3.36848,1.03768 l 0,1.14944 -9.67441,0 m 6.30593,-11.60611 3.4962,0 c 1.80928,2e-5 3.18754,-0.36184 4.13477,-1.08557 0.94721,-0.73435 1.42082,-1.97425 1.42083,-3.7197 -10e-6,-1.73478 -0.4683,-2.96404 -1.40486,-3.68778 -0.93659,-0.72369 -2.32017,-1.08555 -4.15074,-1.08557 l -1.83591,0 c -0.39379,2e-5 -0.70244,0.016 -0.92593,0.0479 -0.21287,0.0319 -0.38848,0.12773 -0.52683,0.28736 -0.13836,0.14902 -0.20754,0.38316 -0.20753,0.70243 l 0,8.54094"
           id="path3852" />
        <path
           d="m 284.19124,336.98156 c -10e-6,-1.29843 0.51085,-2.35208 1.53258,-3.16095 1.02171,-0.8195 2.24565,-1.39421 3.6718,-1.72415 1.43679,-0.34057 2.79908,-0.51085 4.08689,-0.51086 l 0,-1.34101 c -10e-6,-0.62792 -0.13837,-1.23457 -0.41508,-1.81994 -0.27672,-0.59599 -0.67583,-1.08024 -1.19733,-1.45276 -0.52151,-0.38313 -1.09623,-0.5747 -1.72415,-0.57472 -1.44744,2e-5 -2.54898,0.32463 -3.30463,0.97383 0.41507,1e-5 0.75565,0.15966 1.02172,0.47893 0.27671,0.30866 0.41507,0.67052 0.41508,1.08558 -10e-6,0.43637 -0.15433,0.80887 -0.46297,1.11751 -0.30865,0.30865 -0.67583,0.46297 -1.10154,0.46296 -0.43637,10e-6 -0.80887,-0.15431 -1.11751,-0.46296 -0.30865,-0.30864 -0.46297,-0.68114 -0.46297,-1.11751 0,-1.14942 0.5215,-2.00086 1.56451,-2.5543 1.043,-0.56406 2.19244,-0.8461 3.44831,-0.84611 0.88335,10e-6 1.77204,0.19158 2.66605,0.57471 0.894,0.37252 1.62304,0.90999 2.18712,1.61241 0.57471,0.70244 0.86207,1.52195 0.86208,2.45851 l 0,7.35958 c -10e-6,0.42572 0.0904,0.81951 0.27139,1.18137 0.18092,0.35121 0.46296,0.52682 0.84612,0.52682 0.36184,0 0.62791,-0.18093 0.79821,-0.54279 0.18092,-0.36186 0.27138,-0.75032 0.2714,-1.1654 l 0,-2.09133 0.95786,0 0,2.09133 c -10e-6,0.48958 -0.12773,0.95787 -0.38314,1.40487 -0.25545,0.43636 -0.60134,0.78757 -1.03769,1.05365 -0.42573,0.25543 -0.8887,0.38314 -1.3889,0.38314 -0.63859,0 -1.19202,-0.24479 -1.6603,-0.73436 -0.45765,-0.50022 -0.71308,-1.0909 -0.76629,-1.77205 -0.40444,0.81951 -1.00044,1.47405 -1.78801,1.96362 -0.78758,0.47893 -1.62837,0.7184 -2.52237,0.7184 -0.83015,0 -1.64966,-0.12239 -2.45851,-0.36718 -0.79823,-0.24479 -1.46873,-0.62793 -2.01152,-1.14944 -0.53214,-0.53214 -0.79822,-1.21861 -0.79821,-2.0594 m 2.65008,0 c 0,0.76629 0.28204,1.41019 0.84612,1.93169 0.56406,0.5215 1.22925,0.78225 1.99554,0.78225 0.70243,0 1.341,-0.1756 1.91573,-0.52682 0.57471,-0.35122 1.03235,-0.83015 1.37294,-1.4368 0.34056,-0.60664 0.51085,-1.24521 0.51086,-1.91572 l 0,-3.40041 c -0.98981,0 -2.0062,0.16497 -3.0492,0.49489 -1.03237,0.3193 -1.88913,0.82483 -2.57027,1.51662 -0.68115,0.69179 -1.02172,1.54323 -1.02172,2.5543"
           id="path3854" />
        <path
           d="m 307.21187,340.55758 c -1.2878,0 -2.46384,-0.3459 -3.52812,-1.03768 -1.0643,-0.70244 -1.89445,-1.62305 -2.49045,-2.76184 -0.58536,-1.13879 -0.87804,-2.34676 -0.87804,-3.62392 0,-1.31971 0.31929,-2.54365 0.95786,-3.67181 0.64922,-1.13878 1.52726,-2.04342 2.63413,-2.71394 1.10685,-0.67049 2.32547,-1.00574 3.65584,-1.00576 0.79821,2e-5 1.55386,0.17031 2.26694,0.51086 0.71307,0.32995 1.33036,0.79291 1.85187,1.38891 l 0,-6.80083 c -10e-6,-0.58534 -0.0905,-1.00574 -0.27139,-1.26119 -0.1703,-0.26605 -0.42041,-0.42569 -0.75033,-0.47893 -0.3193,-0.0638 -0.82484,-0.0958 -1.51662,-0.0958 l 0,-1.14944 4.83721,-0.35122 0,19.71601 c -1e-5,0.57472 0.0851,0.99512 0.25543,1.26119 0.18092,0.25543 0.43102,0.41508 0.75033,0.47893 0.32991,0.0532 0.84077,0.0798 1.53258,0.0798 l 0,1.14944 -4.933,0.36718 0,-2.05941 c -0.56408,0.64922 -1.23459,1.15476 -2.01151,1.51662 -0.77694,0.36186 -1.56452,0.54279 -2.36273,0.54279 m -3.33655,-3.20884 c 0.3725,0.71308 0.86739,1.28247 1.48469,1.70819 0.62792,0.42572 1.30907,0.63857 2.04344,0.63857 0.90464,0 1.73478,-0.26075 2.49044,-0.78225 0.75564,-0.5215 1.31971,-1.19733 1.69222,-2.02748 l 0,-7.83851 c -0.25544,-0.47892 -0.58005,-0.90464 -0.97382,-1.27715 -0.38316,-0.38313 -0.81952,-0.67581 -1.30908,-0.87804 -0.47894,-0.2022 -0.9898,-0.30331 -1.53258,-0.30332 -1.1388,1e-5 -2.05409,0.32462 -2.74588,0.97382 -0.69179,0.63859 -1.17604,1.45809 -1.45276,2.45852 -0.27672,1.00044 -0.41507,2.04877 -0.41507,3.14498 0,0.87273 0.0426,1.6337 0.12772,2.28291 0.0958,0.64922 0.29267,1.28247 0.59068,1.89976"
           id="path3856" />
        <path
           d="m 318.37098,340.1904 0,-1.14944 c 0.745,0 1.35697,-0.0585 1.8359,-0.1756 0.47893,-0.11708 0.71839,-0.40443 0.7184,-0.86208 l 0,-8.92409 c -10e-6,-0.84078 -0.16497,-1.35696 -0.4949,-1.54855 -0.31929,-0.19156 -0.95786,-0.28734 -1.91573,-0.28735 l 0,-1.14944 4.7095,-0.35122 0,12.26065 c -1e-5,0.45765 0.20753,0.745 0.62261,0.86208 0.41506,0.11707 0.9685,0.1756 1.66029,0.1756 l 0,1.14944 -7.13607,0 m 1.3889,-20.06723 c -1e-5,-0.47891 0.18092,-0.8993 0.54279,-1.26118 0.36185,-0.36184 0.77692,-0.54277 1.24522,-0.54279 0.30864,2e-5 0.60664,0.0798 0.894,0.23946 0.28736,0.15967 0.51086,0.38317 0.67051,0.67051 0.15963,0.28738 0.23946,0.58538 0.23946,0.894 0,0.46831 -0.18093,0.88338 -0.54279,1.24522 -0.36186,0.36188 -0.78226,0.54281 -1.26118,0.54279 -0.4683,2e-5 -0.88337,-0.18091 -1.24522,-0.54279 -0.36187,-0.36184 -0.5428,-0.77691 -0.54279,-1.24522"
           id="path3858" />
        <path
           d="m 334.60675,340.55758 c -1.30909,0 -2.52238,-0.32993 -3.63988,-0.98979 -1.11751,-0.6705 -2.00087,-1.56451 -2.65009,-2.68202 -0.64922,-1.1175 -0.97383,-2.33611 -0.97383,-3.65584 0,-1.00043 0.17561,-1.96361 0.52683,-2.88955 0.36186,-0.92593 0.87271,-1.75075 1.53258,-2.47448 0.6705,-0.73435 1.44743,-1.30375 2.3308,-1.70819 0.88335,-0.41506 1.84122,-0.6226 2.87359,-0.62261 1.341,10e-6 2.55961,0.35655 3.65584,1.06961 1.10685,0.70245 1.97957,1.64967 2.61816,2.84166 0.63856,1.18137 0.95785,2.44256 0.95786,3.78356 -1e-5,1.30908 -0.32462,2.5277 -0.97383,3.65584 -0.64923,1.11751 -1.53259,2.01152 -2.65008,2.68202 -1.10688,0.65986 -2.30953,0.98979 -3.60795,0.98979 m 0,-0.95786 c 1.74543,0 2.91082,-0.63326 3.4962,-1.89976 0.58534,-1.26651 0.87802,-2.87891 0.87804,-4.83721 -2e-5,-1.09621 -0.0586,-2.00086 -0.17561,-2.71395 -0.11709,-0.7237 -0.37252,-1.37824 -0.76629,-1.96362 -0.2448,-0.36184 -0.55877,-0.67581 -0.9419,-0.94189 -0.37251,-0.27671 -0.77162,-0.48424 -1.19733,-0.62262 -0.41508,-0.14898 -0.84612,-0.22348 -1.29311,-0.2235 -0.68116,2e-5 -1.33038,0.15434 -1.94766,0.46297 -0.60665,0.30866 -1.11219,0.75034 -1.51661,1.32504 -0.40444,0.61731 -0.66519,1.29845 -0.78226,2.04345 -0.10643,0.73437 -0.15965,1.61241 -0.15964,2.63412 -10e-6,1.22394 0.10642,2.32548 0.31929,3.30463 0.21285,0.9685 0.63857,1.78269 1.27715,2.44255 0.64921,0.65986 1.58578,0.98979 2.80973,0.98979"
           id="path3860" />
      </g>
      <g
         transform="translate(-0.10034874,0)"
         id="g3831"
         style="stroke:#f53d00;stroke-opacity:1">
        <path
           d="m 451.03312,281.26903 a 10.606602,10.606602 0 0 1 10.60661,0"
           transform="translate(-134.66877,28.944999)"
           id="path3055"
           style="fill:none;stroke:#f53d00;stroke-width:2;stroke-linecap:round;stroke-linejoin:round;stroke-miterlimit:4;stroke-opacity:1;stroke-dasharray:none;stroke-dashoffset:0" />
        <path
           d="m 446.05545,272.64744 a 20.561958,20.561958 0 0 1 20.56196,0"
           transform="translate(-134.66877,28.944999)"
           id="path3825"
           style="fill:none;stroke:#f53d00;stroke-width:2;stroke-linecap:round;stroke-linejoin:round;stroke-miterlimit:4;stroke-opacity:1;stroke-dasharray:none;stroke-dashoffset:0" />
        <path
           d="m 440.51973,263.0593 a 31.633387,31.633387 0 0 1 31.63339,0"
           transform="translate(-134.66877,28.944999)"
           id="path3827"
           style="fill:none;stroke:#f53d00;stroke-width:2;stroke-linecap:round;stroke-linejoin:round;stroke-miterlimit:4;stroke-opacity:1;stroke-dasharray:none;stroke-dashoffset:0" />
        <path
           d="m 434.98402,253.47117 a 42.704815,42.704815 0 0 1 42.70481,0"
           transform="translate(-134.66877,28.944999)"
           id="path3829"
           style="fill:none;stroke:#f53d00;stroke-width:2;stroke-linecap:round;stroke-linejoin:round;stroke-miterlimit:4;stroke-opacity:1;stroke-dasharray:none;stroke-dashoffset:0" />
      </g>
      <g
         id="text3839"
         style="font-size:12.73107052px;font-style:normal;font-variant:normal;font-weight:normal;font-stretch:normal;text-align:start;line-height:125%;letter-spacing:0px;word-spacing:0px;writing-mode:lr-tb;text-anchor:start;fill:#9d330c;fill-opacity:1;stroke:none;font-family:DejaVu Sans Mono;-inkscape-font-specification:DejaVu Sans Mono">
        <path
           d="m 178.01322,344.65007 0,1.9768 2.59843,0 0,0.88894 -2.59843,0 0,3.77953 c -1e-5,0.51389 0.0974,0.87236 0.29216,1.07543 0.19478,0.20307 0.5346,0.3046 1.01948,0.3046 l 1.28679,0 0,0.9138 -1.39868,0 c -0.85786,0 -1.46292,-0.17198 -1.81517,-0.51595 -0.35227,-0.34397 -0.52839,-0.9366 -0.52839,-1.77788 l 0,-3.77953 -1.85869,0 0,-0.88894 1.85869,0 0,-1.9768 1.14381,0"
           id="path3255" />
        <path
           d="m 188.38829,349.27503 0,4.31414 -1.15002,0 0,-4.31414 c -1e-5,-0.62577 -0.10983,-1.08578 -0.32947,-1.38003 -0.21965,-0.29423 -0.56362,-0.44135 -1.03191,-0.44136 -0.53461,10e-6 -0.94696,0.19064 -1.23705,0.57191 -0.28596,0.37713 -0.42893,0.92002 -0.42893,1.62868 l 0,3.93494 -1.14381,0 0,-9.67263 1.14381,0 0,3.75467 c 0.20306,-0.39784 0.47865,-0.69829 0.82677,-0.90137 0.34811,-0.2072 0.76046,-0.31081 1.23706,-0.31081 0.70865,0 1.23704,0.23415 1.58516,0.70244 0.35226,0.46416 0.52839,1.16868 0.52839,2.11356"
           id="path3257" />
        <path
           d="m 196.42602,349.82207 0,0.55947 -4.95442,0 0,0.0373 c 0,0.75839 0.19685,1.3448 0.59055,1.75922 0.39784,0.41443 0.95731,0.62164 1.67841,0.62164 0.36469,0 0.74596,-0.058 1.14381,-0.17406 0.39784,-0.11604 0.82262,-0.29217 1.27435,-0.52839 l 0,1.13759 c -0.43515,0.1782 -0.85579,0.31082 -1.26192,0.39785 -0.40199,0.0912 -0.79155,0.13676 -1.16867,0.13676 -1.08165,0 -1.92707,-0.32325 -2.53627,-0.96975 -0.6092,-0.65065 -0.9138,-1.5458 -0.9138,-2.68546 0,-1.11065 0.29838,-1.99752 0.89515,-2.6606 0.59677,-0.66307 1.39246,-0.99461 2.38708,-0.99461 0.88686,0 1.58516,0.30046 2.09491,0.90137 0.51387,0.60092 0.77082,1.42147 0.77082,2.46167 m -1.1438,-0.33568 c -0.0166,-0.67136 -0.17614,-1.1811 -0.47866,-1.52922 -0.29839,-0.35226 -0.72939,-0.52839 -1.293,-0.52839 -0.55119,0 -1.00498,0.18235 -1.36138,0.54703 -0.35641,0.3647 -0.56776,0.8703 -0.63407,1.51679 l 3.76711,-0.006"
           id="path3259" />
        <path
           d="m 210.16414,350.05207 c 0,-0.85785 -0.14091,-1.50849 -0.42271,-1.95193 -0.27767,-0.44757 -0.6838,-0.67136 -1.2184,-0.67136 -0.55948,0 -0.98633,0.22379 -1.28057,0.67136 -0.29424,0.44344 -0.44136,1.09408 -0.44136,1.95193 0,0.85786 0.14712,1.51265 0.44136,1.96437 0.29838,0.44758 0.72938,0.67136 1.293,0.67136 0.52631,0 0.9283,-0.22586 1.20597,-0.67758 0.2818,-0.45172 0.42271,-1.10443 0.42271,-1.95815 m 1.14381,3.08953 c -1e-5,1.04434 -0.24659,1.83589 -0.73975,2.37464 -0.49317,0.53875 -1.2184,0.80812 -2.17572,0.80812 -0.31496,0 -0.64443,-0.029 -0.9884,-0.087 -0.34397,-0.058 -0.68794,-0.14297 -1.03191,-0.25487 l 0,-1.13137 c 0.40613,0.19063 0.77497,0.33154 1.10651,0.42271 0.33154,0.0912 0.63614,0.13676 0.9138,0.13676 0.61749,0 1.06714,-0.16784 1.34895,-0.50352 0.2818,-0.33569 0.42271,-0.86822 0.42271,-1.5976 l 0,-0.0497 0,-0.77705 c -0.18235,0.38956 -0.431,0.67966 -0.74596,0.87029 -0.31497,0.19064 -0.69831,0.28595 -1.15002,0.28595 -0.81228,0 -1.46085,-0.32532 -1.94572,-0.97596 -0.48487,-0.65065 -0.72731,-1.52093 -0.72731,-2.61087 0,-1.09407 0.24244,-1.96643 0.72731,-2.61708 0.48487,-0.65063 1.13344,-0.97596 1.94572,-0.97596 0.44757,0 0.82677,0.0891 1.13759,0.2673 0.31081,0.17821 0.56361,0.4538 0.75839,0.82677 l 0,-0.90137 1.14381,0 0,6.48987"
           id="path3261" />
        <path
           d="m 219.02243,349.27503 0,4.31414 -1.15003,0 0,-4.31414 c 0,-0.62577 -0.10982,-1.08578 -0.32946,-1.38003 -0.21965,-0.29423 -0.56362,-0.44135 -1.03191,-0.44136 -0.53461,10e-6 -0.94696,0.19064 -1.23706,0.57191 -0.28595,0.37713 -0.42893,0.92002 -0.42892,1.62868 l 0,3.93494 -1.14381,0 0,-6.9623 1.14381,0 0,1.04434 c 0.20306,-0.39784 0.47865,-0.69829 0.82677,-0.90137 0.34811,-0.2072 0.76046,-0.31081 1.23705,-0.31081 0.70866,0 1.23705,0.23415 1.58517,0.70244 0.35225,0.46416 0.52838,1.16868 0.52839,2.11356"
           id="path3263" />
        <path
           d="m 221.35977,350.95344 0,-4.31414 1.14381,0 0,4.31414 c 0,0.62578 0.10982,1.08579 0.32947,1.38003 0.22378,0.29424 0.56775,0.44136 1.03191,0.44136 0.53875,0 0.9511,-0.18856 1.23705,-0.56569 0.28595,-0.38126 0.42892,-0.92623 0.42893,-1.63489 l 0,-3.93495 1.15002,0 0,6.94987 -1.15002,0 0,-1.04434 c -0.20307,0.40199 -0.48074,0.70659 -0.83299,0.9138 -0.34812,0.20721 -0.75633,0.31082 -1.22462,0.31082 -0.71281,0 -1.24327,-0.23208 -1.59138,-0.69623 -0.34812,-0.4683 -0.52218,-1.17489 -0.52218,-2.11978"
           id="path3265" />
        <path
           d="m 241.51316,346.86931 0,1.11894 c -0.3274,-0.19063 -0.65687,-0.33361 -0.9884,-0.42893 -0.33154,-0.0953 -0.6693,-0.14297 -1.01326,-0.14298 -0.51804,1e-5 -0.90552,0.085 -1.16246,0.25487 -0.2528,0.16578 -0.3792,0.42065 -0.3792,0.76461 0,0.31083 0.0953,0.5429 0.28595,0.69623 0.19064,0.15335 0.66515,0.30254 1.42355,0.44758 l 0.46001,0.087 c 0.56775,0.10775 0.99668,0.32325 1.28678,0.6465 0.29423,0.32325 0.44135,0.74389 0.44136,1.26192 -1e-5,0.68794 -0.24452,1.22669 -0.73353,1.61625 -0.48902,0.38541 -1.16868,0.57812 -2.03896,0.57812 -0.34397,0 -0.70452,-0.0373 -1.08164,-0.1119 -0.37713,-0.0704 -0.78534,-0.1782 -1.22462,-0.32325 l 0,-1.1811 c 0.42685,0.21964 0.83506,0.38541 1.22462,0.4973 0.38955,0.10776 0.75839,0.16163 1.10651,0.16163 0.50559,0 0.89722,-0.10153 1.17489,-0.3046 0.27765,-0.20721 0.41649,-0.49524 0.41649,-0.86407 0,-0.53046 -0.50767,-0.89723 -1.523,-1.1003 l -0.0497,-0.0124 -0.42893,-0.087 c -0.65894,-0.12847 -1.13967,-0.34396 -1.44219,-0.6465 -0.30253,-0.30667 -0.4538,-0.72316 -0.4538,-1.24948 0,-0.66722 0.22586,-1.1811 0.67758,-1.54165 0.45172,-0.36469 1.09615,-0.54704 1.93329,-0.54704 0.37297,0 0.73145,0.0352 1.07542,0.10567 0.34397,0.0663 0.68172,0.16785 1.01327,0.30461"
           id="path3267" />
        <path
           d="m 246.95246,347.42878 c -0.5802,0 -1.01948,0.22586 -1.31787,0.67758 -0.29838,0.45172 -0.44757,1.12102 -0.44757,2.00788 0,0.88272 0.14919,1.55201 0.44757,2.00788 0.29839,0.45172 0.73767,0.67758 1.31787,0.67758 0.58433,0 1.02569,-0.22586 1.32408,-0.67758 0.29838,-0.45587 0.44757,-1.12516 0.44758,-2.00788 -1e-5,-0.88686 -0.1492,-1.55616 -0.44758,-2.00788 -0.29839,-0.45172 -0.73975,-0.67758 -1.32408,-0.67758 m 0,-0.96975 c 0.9656,0 1.70327,0.31289 2.21302,0.93866 0.51388,0.62579 0.77082,1.5313 0.77082,2.71655 0,1.18939 -0.25487,2.09698 -0.76461,2.72275 -0.50974,0.62164 -1.24949,0.93246 -2.21923,0.93246 -0.96561,0 -1.70328,-0.31082 -2.21302,-0.93246 -0.50974,-0.62577 -0.76461,-1.53336 -0.76461,-2.72275 0,-1.18525 0.25487,-2.09076 0.76461,-2.71655 0.50974,-0.62577 1.24741,-0.93866 2.21302,-0.93866"
           id="path3269" />
        <path
           d="m 257.3897,343.91654 0,0.9511 -1.29922,0 c -0.41028,1e-5 -0.69624,0.085 -0.85786,0.25487 -0.15748,0.16578 -0.23622,0.46209 -0.23622,0.88894 l 0,0.61542 2.3933,0 0,0.88894 -2.3933,0 0,6.07336 -1.1438,0 0,-6.07336 -1.85869,0 0,-0.88894 1.85869,0 0,-0.48488 c -1e-5,-0.76253 0.17405,-1.32407 0.52217,-1.68463 0.35225,-0.36053 0.89929,-0.54081 1.64111,-0.54082 l 1.37382,0"
           id="path3271" />
        <path
           d="m 262.2571,344.65007 0,1.9768 2.59843,0 0,0.88894 -2.59843,0 0,3.77953 c -10e-6,0.51389 0.0974,0.87236 0.29216,1.07543 0.19478,0.20307 0.53461,0.3046 1.01948,0.3046 l 1.28679,0 0,0.9138 -1.39868,0 c -0.85786,0 -1.46292,-0.17198 -1.81517,-0.51595 -0.35226,-0.34397 -0.52839,-0.9366 -0.52839,-1.77788 l 0,-3.77953 -1.85869,0 0,-0.88894 1.85869,0 0,-1.9768 1.14381,0"
           id="path3273" />
        <path
           d="m 266.09879,346.62687 1.13138,0 1.21218,5.62579 0.99462,-3.59305 0.97597,0 1.00704,3.59305 1.21219,-5.62579 1.13137,0 -1.62868,6.9623 -1.09407,0 -1.11273,-3.81683 -1.10651,3.81683 -1.09408,0 -1.62868,-6.9623"
           id="path3275" />
        <path
           d="m 278.1212,350.08937 -0.37919,0 c -0.66723,0 -1.17075,0.11812 -1.51057,0.35433 -0.33569,0.23208 -0.50353,0.5802 -0.50353,1.04435 0,0.41857 0.1264,0.74389 0.3792,0.97596 0.25279,0.23208 0.60298,0.34812 1.05056,0.34812 0.62992,0 1.12516,-0.21757 1.48571,-0.65272 0.36054,-0.43928 0.54289,-1.04434 0.54704,-1.81517 l 0,-0.25487 -1.06922,0 m 2.21924,-0.47244 0,3.97224 -1.15002,0 0,-1.03191 c -0.24452,0.41442 -0.55326,0.7211 -0.92624,0.92002 -0.36884,0.19478 -0.81849,0.29217 -1.34895,0.29217 -0.70866,0 -1.27435,-0.19893 -1.69706,-0.59677 -0.42271,-0.40199 -0.63407,-0.93867 -0.63406,-1.61004 -1e-5,-0.77496 0.25901,-1.36344 0.77704,-1.76544 0.52217,-0.40198 1.28678,-0.60298 2.29383,-0.60298 l 1.53544,0 0,-0.18028 c -0.004,-0.55532 -0.14506,-0.95731 -0.42272,-1.20597 -0.27766,-0.25279 -0.7211,-0.37919 -1.33029,-0.37919 -0.38956,0 -0.78327,0.0559 -1.18111,0.16784 -0.39785,0.1119 -0.78533,0.27559 -1.16245,0.49109 l 0,-1.14381 c 0.42271,-0.16162 0.82677,-0.2818 1.21218,-0.36055 0.38956,-0.0829 0.76668,-0.12432 1.13138,-0.12432 0.57604,0 1.06713,0.085 1.47327,0.25487 0.41027,0.16992 0.74181,0.42479 0.99462,0.76461 0.15747,0.20721 0.26936,0.46416 0.33568,0.77082 0.0663,0.30254 0.0995,0.7584 0.0995,1.3676"
           id="path3277" />
        <path
           d="m 288.59574,348.06284 c -0.24452,-0.19063 -0.49317,-0.32946 -0.74596,-0.41649 -0.25281,-0.087 -0.53047,-0.13054 -0.83299,-0.13054 -0.71281,0 -1.25778,0.22379 -1.6349,0.67136 -0.37713,0.44758 -0.56569,1.09408 -0.56569,1.9395 l 0,3.4625 -1.15002,0 0,-6.9623 1.15002,0 0,1.36138 c 0.19063,-0.49316 0.4828,-0.87028 0.87651,-1.13138 0.39784,-0.26522 0.86821,-0.39784 1.41111,-0.39784 0.2818,0 0.54496,0.0352 0.78947,0.10567 0.24451,0.0705 0.47865,0.18029 0.70245,0.32947 l 0,1.16867"
           id="path3279" />
        <path
           d="m 295.98698,349.82207 0,0.55947 -4.95443,0 0,0.0373 c 0,0.75839 0.19685,1.3448 0.59055,1.75922 0.39785,0.41443 0.95732,0.62164 1.67842,0.62164 0.36468,0 0.74595,-0.058 1.1438,-0.17406 0.39784,-0.11604 0.82263,-0.29217 1.27435,-0.52839 l 0,1.13759 c -0.43515,0.1782 -0.85579,0.31082 -1.26192,0.39785 -0.40199,0.0912 -0.79155,0.13676 -1.16867,0.13676 -1.08164,0 -1.92707,-0.32325 -2.53627,-0.96975 -0.6092,-0.65065 -0.9138,-1.5458 -0.9138,-2.68546 0,-1.11065 0.29839,-1.99752 0.89516,-2.6606 0.59676,-0.66307 1.39245,-0.99461 2.38707,-0.99461 0.88686,0 1.58516,0.30046 2.09491,0.90137 0.51388,0.60092 0.77082,1.42147 0.77083,2.46167 m -1.14381,-0.33568 c -0.0166,-0.67136 -0.17614,-1.1811 -0.47866,-1.52922 -0.29839,-0.35226 -0.72939,-0.52839 -1.293,-0.52839 -0.55119,0 -1.00498,0.18235 -1.36138,0.54703 -0.3564,0.3647 -0.56776,0.8703 -0.63407,1.51679 l 3.76711,-0.006"
           id="path3281" />
        <path
           d="m 311.57134,348.06284 c -0.24452,-0.19063 -0.49317,-0.32946 -0.74596,-0.41649 -0.2528,-0.087 -0.53047,-0.13054 -0.83299,-0.13054 -0.71281,0 -1.25778,0.22379 -1.6349,0.67136 -0.37713,0.44758 -0.56569,1.09408 -0.56569,1.9395 l 0,3.4625 -1.15002,0 0,-6.9623 1.15002,0 0,1.36138 c 0.19063,-0.49316 0.4828,-0.87028 0.87651,-1.13138 0.39784,-0.26522 0.86821,-0.39784 1.41111,-0.39784 0.2818,0 0.54496,0.0352 0.78947,0.10567 0.24451,0.0705 0.47866,0.18029 0.70245,0.32947 l 0,1.16867"
           id="path3283" />
        <path
           d="m 316.41388,350.08937 -0.3792,0 c -0.66723,0 -1.17075,0.11812 -1.51057,0.35433 -0.33569,0.23208 -0.50353,0.5802 -0.50353,1.04435 0,0.41857 0.1264,0.74389 0.3792,0.97596 0.2528,0.23208 0.60298,0.34812 1.05056,0.34812 0.62992,0 1.12516,-0.21757 1.48571,-0.65272 0.36054,-0.43928 0.54289,-1.04434 0.54704,-1.81517 l 0,-0.25487 -1.06921,0 m 2.21923,-0.47244 0,3.97224 -1.15002,0 0,-1.03191 c -0.24452,0.41442 -0.55326,0.7211 -0.92624,0.92002 -0.36884,0.19478 -0.81849,0.29217 -1.34894,0.29217 -0.70867,0 -1.27436,-0.19893 -1.69707,-0.59677 -0.42271,-0.40199 -0.63406,-0.93867 -0.63406,-1.61004 0,-0.77496 0.25901,-1.36344 0.77704,-1.76544 0.52217,-0.40198 1.28678,-0.60298 2.29383,-0.60298 l 1.53544,0 0,-0.18028 c -0.004,-0.55532 -0.14506,-0.95731 -0.42271,-1.20597 -0.27767,-0.25279 -0.7211,-0.37919 -1.3303,-0.37919 -0.38956,0 -0.78326,0.0559 -1.18111,0.16784 -0.39785,0.1119 -0.78533,0.27559 -1.16245,0.49109 l 0,-1.14381 c 0.42271,-0.16162 0.82677,-0.2818 1.21218,-0.36055 0.38956,-0.0829 0.76668,-0.12432 1.13138,-0.12432 0.57604,0 1.06713,0.085 1.47327,0.25487 0.41027,0.16992 0.74181,0.42479 0.99462,0.76461 0.15747,0.20721 0.26936,0.46416 0.33568,0.77082 0.0663,0.30254 0.0994,0.7584 0.0995,1.3676"
           id="path3285" />
        <path
           d="m 325.04216,347.51581 0,-3.59927 1.14381,0 0,9.67263 -1.14381,0 0,-0.8765 c -0.19064,0.34397 -0.44551,0.60713 -0.76461,0.78947 -0.31496,0.17821 -0.67965,0.26731 -1.09407,0.26731 -0.84128,0 -1.50436,-0.32533 -1.98923,-0.97597 -0.48073,-0.65479 -0.7211,-1.55616 -0.7211,-2.70411 0,-1.13137 0.24244,-2.01823 0.72731,-2.66059 0.48488,-0.6465 1.14588,-0.96975 1.98302,-0.96975 0.41856,0 0.7874,0.0912 1.10651,0.27352 0.3191,0.1782 0.56982,0.43929 0.75217,0.78326 m -3.36304,2.59843 c 0,0.88686 0.1409,1.55616 0.42271,2.00788 0.28181,0.45172 0.6983,0.67758 1.24949,0.67758 0.55118,0 0.96974,-0.22793 1.2557,-0.6838 0.29009,-0.45586 0.43514,-1.12308 0.43514,-2.00166 0,-0.88272 -0.14505,-1.54994 -0.43514,-2.00167 -0.28596,-0.45586 -0.70452,-0.68379 -1.2557,-0.68379 -0.55119,0 -0.96768,0.22586 -1.24949,0.67758 -0.28181,0.45172 -0.42271,1.12102 -0.42271,2.00788"
           id="path3287" />
        <path
           d="m 328.95845,346.62687 2.9279,0 0,6.07337 2.26896,0 0,0.88893 -5.68174,0 0,-0.88893 2.26897,0 0,-5.18443 -1.78409,0 0,-0.88894 m 1.78409,-2.71033 1.14381,0 0,1.44841 -1.14381,0 0,-1.44841"
           id="path3289" />
        <path
           d="m 338.85487,347.42878 c -0.58019,0 -1.01948,0.22586 -1.31786,0.67758 -0.29839,0.45172 -0.44758,1.12102 -0.44758,2.00788 0,0.88272 0.14919,1.55201 0.44758,2.00788 0.29838,0.45172 0.73767,0.67758 1.31786,0.67758 0.58433,0 1.02569,-0.22586 1.32408,-0.67758 0.29838,-0.45587 0.44757,-1.12516 0.44758,-2.00788 -10e-6,-0.88686 -0.1492,-1.55616 -0.44758,-2.00788 -0.29839,-0.45172 -0.73975,-0.67758 -1.32408,-0.67758 m 0,-0.96975 c 0.9656,0 1.70327,0.31289 2.21302,0.93866 0.51388,0.62579 0.77082,1.5313 0.77083,2.71655 -1e-5,1.18939 -0.25488,2.09698 -0.76461,2.72275 -0.50975,0.62164 -1.24949,0.93246 -2.21924,0.93246 -0.96561,0 -1.70328,-0.31082 -2.21302,-0.93246 -0.50974,-0.62577 -0.76461,-1.53336 -0.76461,-2.72275 0,-1.18525 0.25487,-2.09076 0.76461,-2.71655 0.50974,-0.62577 1.24741,-0.93866 2.21302,-0.93866"
           id="path3291" />
      </g>
    </g>
  </g>
</svg>
