<?xml version="1.0" encoding="UTF-8" standalone="no"?>
<!-- Created with Inkscape (http://www.inkscape.org/) -->

<svg
   xmlns:dc="http://purl.org/dc/elements/1.1/"
   xmlns:cc="http://creativecommons.org/ns#"
   xmlns:rdf="http://www.w3.org/1999/02/22-rdf-syntax-ns#"
   xmlns:svg="http://www.w3.org/2000/svg"
   xmlns="http://www.w3.org/2000/svg"
   xmlns:sodipodi="http://sodipodi.sourceforge.net/DTD/sodipodi-0.dtd"
   xmlns:inkscape="http://www.inkscape.org/namespaces/inkscape"
   width="233.85826"
   height="122.74477"
   id="svg2"
   version="1.1"
   inkscape:version="0.48.3.1 r9886"
   inkscape:export-filename="/home/mueller/grlogohd.png"
   inkscape:export-xdpi="300.18182"
   inkscape:export-ydpi="300.18182"
   sodipodi:docname="grlogo-inkscape.svg">
  <defs
     id="defs4" />
  <sodipodi:namedview
     id="base"
     pagecolor="#ffffff"
     bordercolor="#666666"
     borderopacity="1.0"
     inkscape:pageopacity="0.0"
     inkscape:pageshadow="2"
     inkscape:zoom="1.979899"
     inkscape:cx="118.25447"
     inkscape:cy="36.714202"
     inkscape:document-units="mm"
     inkscape:current-layer="g3884"
     showgrid="false"
     showguides="true"
     inkscape:guide-bbox="true"
     units="mm"
     fit-margin-top="3"
     fit-margin-left="3"
     fit-margin-right="3"
     fit-margin-bottom="3"
     inkscape:window-width="661"
     inkscape:window-height="766"
     inkscape:window-x="40"
     inkscape:window-y="0"
     inkscape:window-maximized="0">
    <sodipodi:guide
       orientation="0,1"
       position="124.52462,706.9958"
       id="guide3843" />
  </sodipodi:namedview>
  <metadata
     id="metadata7">
    <rdf:RDF>
      <cc:Work
         rdf:about="">
        <dc:format>image/svg+xml</dc:format>
        <dc:type
           rdf:resource="http://purl.org/dc/dcmitype/StillImage" />
        <dc:title></dc:title>
      </cc:Work>
    </rdf:RDF>
  </metadata>
  <g
     inkscape:label="Ebene 1"
     inkscape:groupmode="layer"
     id="layer1"
     transform="translate(10.629922,-937.8402)">
    <g
       id="g3884"
       transform="matrix(1.2586566,0,0,1.2586566,-220.2784,601.46504)">
      <g
         id="text2985"
         style="font-size:32.6950531px;font-style:normal;font-variant:normal;font-weight:normal;font-stretch:normal;text-align:start;line-height:125%;letter-spacing:0px;word-spacing:0px;writing-mode:lr-tb;text-anchor:start;fill:#000000;fill-opacity:1;stroke:none;font-family:cmr10;-inkscape-font-specification:cmr10">
        <path
           inkscape:connector-curvature="0"
           id="path3846"
           d="m 180.69415,336.6942 c 0.78757,0.95787 1.74543,1.70819 2.87359,2.25098 1.13878,0.54279 2.32546,0.81418 3.56006,0.81418 1.21327,0 2.31482,-0.30864 3.30462,-0.92593 0.98978,-0.61729 1.48467,-1.49533 1.48469,-2.63413 l 0,-2.74587 c -2e-5,-0.69178 -1.36231,-1.03768 -4.08688,-1.03768 l 0,-1.14944 9.37109,0 0,1.14944 c -0.69181,0 -1.23992,0.0585 -1.64433,0.1756 -0.40445,0.11708 -0.60667,0.40444 -0.60665,0.86208 l 0,6.44961 c -2e-5,0.0745 -0.032,0.14368 -0.0958,0.20754 -0.0532,0.0532 -0.1171,0.0798 -0.19158,0.0798 -0.20223,0 -0.54281,-0.23947 -1.02172,-0.7184 -0.4683,-0.47893 -0.84081,-0.90464 -1.1175,-1.27715 -0.53217,0.91529 -1.36764,1.59644 -2.50641,2.04344 -1.13881,0.447 -2.33082,0.67051 -3.57602,0.67051 -2.11795,0 -4.04964,-0.54279 -5.79507,-1.62837 -1.7348,-1.09622 -3.10774,-2.5543 -4.11881,-4.37424 -1.01108,-1.83058 -1.51662,-3.79419 -1.51662,-5.89086 0,-1.54321 0.29268,-3.04386 0.87804,-4.50195 0.58536,-1.45807 1.39954,-2.74054 2.44255,-3.84742 1.05364,-1.10684 2.27758,-1.96892 3.67181,-2.58623 1.39421,-0.62791 2.87358,-0.94187 4.4381,-0.9419 1.12813,3e-5 2.19242,0.24481 3.19287,0.73436 1.01106,0.47896 1.91039,1.1601 2.69798,2.04344 l 1.89977,-2.68201 c 0.12769,-0.0638 0.20219,-0.0958 0.2235,-0.0958 l 0.23946,0 c 0.0638,3e-5 0.12237,0.0266 0.17561,0.0798 0.0532,0.0532 0.0798,0.1171 0.0798,0.19158 l 0,8.8283 c -2e-5,0.19159 -0.0852,0.28737 -0.25543,0.28736 l -0.59068,0 c -0.20224,1e-5 -0.30334,-0.0958 -0.30332,-0.28736 -2e-5,-0.62792 -0.12774,-1.33035 -0.38315,-2.1073 -0.2448,-0.77691 -0.56409,-1.51128 -0.95786,-2.20308 -0.38316,-0.70242 -0.83017,-1.31971 -1.34101,-1.85187 -1.22395,-1.19199 -2.62882,-1.78799 -4.2146,-1.78801 -1.2133,2e-5 -2.37338,0.27141 -3.48023,0.81418 -1.10687,0.54281 -2.03813,1.29314 -2.79377,2.25098 -0.79822,1.02174 -1.35165,2.18714 -1.66029,3.4962 -0.30865,1.29845 -0.46298,2.68735 -0.46297,4.1667 -1e-5,3.34189 0.72903,5.90151 2.18712,7.67887" />
        <path
           inkscape:connector-curvature="0"
           id="path3848"
           d="m 199.85141,340.1904 0,-1.14944 c 2.24565,0 3.36848,-0.64389 3.36848,-1.93169 l 0,-17.91203 c -0.71308,-0.1277 -1.8359,-0.19155 -3.36848,-0.19157 l 0,-1.14944 6.25804,0 c 0.10642,2e-5 0.18092,0.0426 0.2235,0.12771 l 11.57417,17.034 0,-14.08058 c -2e-5,-1.28778 -1.12284,-1.93167 -3.36848,-1.93169 l 0,-1.14944 7.77465,0 0,1.14944 c -2.23503,2e-5 -3.35254,0.64391 -3.35252,1.93169 l 0,18.96568 c -2e-5,0.0639 -0.0426,0.12772 -0.12771,0.19157 -0.0852,0.0639 -0.15435,0.0958 -0.20754,0.0958 l -0.39911,0 c -0.10645,0 -0.18095,-0.0426 -0.2235,-0.12772 l -13.72937,-20.2109 0,17.25749 c 0,1.2878 1.12282,1.93169 3.36849,1.93169 l 0,1.14944 -7.79062,0" />
        <path
           inkscape:connector-curvature="0"
           id="path3850"
           d="m 227.74118,332.79889 0,-12.75554 c 0,-0.69177 -1.12283,-1.03766 -3.36848,-1.03768 l 0,-1.14944 9.78617,0 0,1.14944 c -2.24567,2e-5 -3.3685,0.34591 -3.36849,1.03768 l 0,12.62783 c -1e-5,1.21329 0.16496,2.36273 0.4949,3.4483 0.34056,1.07494 0.90464,1.95298 1.69222,2.63412 0.79821,0.67051 1.83589,1.00576 3.11306,1.00576 1.2452,0 2.34142,-0.32461 3.28866,-0.97383 0.9472,-0.65986 1.67624,-1.53257 2.18712,-2.61815 0.51084,-1.08558 0.76627,-2.25098 0.76629,-3.4962 l 0,-11.73382 c -2e-5,-1.28778 -1.12285,-1.93167 -3.36849,-1.93169 l 0,-1.14944 7.87044,0 0,1.14944 c -2.23503,2e-5 -3.35254,0.64391 -3.35252,1.93169 l 0,11.86153 c -2e-5,1.01108 -0.18095,2.00088 -0.54279,2.96938 -0.35123,0.9685 -0.86741,1.84654 -1.54854,2.63412 -0.67052,0.77693 -1.46342,1.3889 -2.37869,1.8359 -0.91531,0.447 -1.88914,0.67051 -2.92148,0.67051 -1.44745,0 -2.82039,-0.36186 -4.11882,-1.08558 -1.2878,-0.72372 -2.31484,-1.70819 -3.08112,-2.95341 -0.7663,-1.24522 -1.14944,-2.60219 -1.14944,-4.07092" />
        <path
           inkscape:connector-curvature="0"
           id="path3852"
           d="m 259.89345,340.1904 0,-1.14944 c 2.24565,0 3.36848,-0.34589 3.36848,-1.03768 l 0,-17.95993 c 0,-0.69177 -1.12283,-1.03766 -3.36848,-1.03768 l 0,-1.14944 10.26509,0 c 1.22393,2e-5 2.5064,0.22352 3.84742,0.6705 1.35163,0.43638 2.47978,1.10689 3.38445,2.01152 0.90463,0.90466 1.35695,1.98492 1.35697,3.24077 -2e-5,0.9153 -0.27673,1.73481 -0.83015,2.45851 -0.5428,0.71309 -1.24524,1.31441 -2.10729,1.80397 -0.85145,0.47895 -1.72417,0.82484 -2.61816,1.03769 0.97913,0.34058 1.83588,0.88337 2.57026,1.62837 0.73435,0.74501 1.17603,1.59644 1.32505,2.5543 l 0.46296,2.90552 c 0.21284,1.30908 0.43634,2.28822 0.67051,2.93744 0.23412,0.63858 0.7503,0.95786 1.54854,0.95786 0.68113,0 1.18667,-0.31396 1.51662,-0.94189 0.34055,-0.63858 0.51084,-1.33037 0.51086,-2.07537 -2e-5,-0.0745 0.0319,-0.13836 0.0958,-0.19158 0.0745,-0.0639 0.14898,-0.0958 0.22351,-0.0958 l 0.30332,0 c 0.21283,0 0.31926,0.14368 0.31929,0.43104 -3e-5,0.596 -0.1171,1.18136 -0.35122,1.75608 -0.23417,0.56407 -0.57474,1.03236 -1.02172,1.40486 -0.43638,0.3725 -0.95788,0.55876 -1.56451,0.55876 -1.57517,0 -2.93214,-0.38847 -4.07092,-1.1654 -1.12816,-0.78758 -1.69224,-1.93701 -1.69222,-3.44831 l 0,-2.90552 c -2e-5,-1.08557 -0.37784,-2.01682 -1.13347,-2.79376 -0.75566,-0.77693 -1.6816,-1.16539 -2.7778,-1.1654 l -3.92724,0 0,8.57287 c -1e-5,0.69179 1.12282,1.03768 3.36848,1.03768 l 0,1.14944 -9.67441,0 m 6.30593,-11.60611 3.4962,0 c 1.80928,2e-5 3.18754,-0.36184 4.13477,-1.08557 0.94721,-0.73435 1.42082,-1.97425 1.42083,-3.7197 -10e-6,-1.73478 -0.4683,-2.96404 -1.40486,-3.68778 -0.93659,-0.72369 -2.32017,-1.08555 -4.15074,-1.08557 l -1.83591,0 c -0.39379,2e-5 -0.70244,0.016 -0.92593,0.0479 -0.21287,0.0319 -0.38848,0.12773 -0.52683,0.28736 -0.13836,0.14902 -0.20754,0.38316 -0.20753,0.70243 l 0,8.54094" />
        <path
           inkscape:connector-curvature="0"
           id="path3854"
           d="m 284.19124,336.98156 c -10e-6,-1.29843 0.51085,-2.35208 1.53258,-3.16095 1.02171,-0.8195 2.24565,-1.39421 3.6718,-1.72415 1.43679,-0.34057 2.79908,-0.51085 4.08689,-0.51086 l 0,-1.34101 c -10e-6,-0.62792 -0.13837,-1.23457 -0.41508,-1.81994 -0.27672,-0.59599 -0.67583,-1.08024 -1.19733,-1.45276 -0.52151,-0.38313 -1.09623,-0.5747 -1.72415,-0.57472 -1.44744,2e-5 -2.54898,0.32463 -3.30463,0.97383 0.41507,1e-5 0.75565,0.15966 1.02172,0.47893 0.27671,0.30866 0.41507,0.67052 0.41508,1.08558 -10e-6,0.43637 -0.15433,0.80887 -0.46297,1.11751 -0.30865,0.30865 -0.67583,0.46297 -1.10154,0.46296 -0.43637,10e-6 -0.80887,-0.15431 -1.11751,-0.46296 -0.30865,-0.30864 -0.46297,-0.68114 -0.46297,-1.11751 0,-1.14942 0.5215,-2.00086 1.56451,-2.5543 1.043,-0.56406 2.19244,-0.8461 3.44831,-0.84611 0.88335,10e-6 1.77204,0.19158 2.66605,0.57471 0.894,0.37252 1.62304,0.90999 2.18712,1.61241 0.57471,0.70244 0.86207,1.52195 0.86208,2.45851 l 0,7.35958 c -10e-6,0.42572 0.0904,0.81951 0.27139,1.18137 0.18092,0.35121 0.46296,0.52682 0.84612,0.52682 0.36184,0 0.62791,-0.18093 0.79821,-0.54279 0.18092,-0.36186 0.27138,-0.75032 0.2714,-1.1654 l 0,-2.09133 0.95786,0 0,2.09133 c -10e-6,0.48958 -0.12773,0.95787 -0.38314,1.40487 -0.25545,0.43636 -0.60134,0.78757 -1.03769,1.05365 -0.42573,0.25543 -0.8887,0.38314 -1.3889,0.38314 -0.63859,0 -1.19202,-0.24479 -1.6603,-0.73436 -0.45765,-0.50022 -0.71308,-1.0909 -0.76629,-1.77205 -0.40444,0.81951 -1.00044,1.47405 -1.78801,1.96362 -0.78758,0.47893 -1.62837,0.7184 -2.52237,0.7184 -0.83015,0 -1.64966,-0.12239 -2.45851,-0.36718 -0.79823,-0.24479 -1.46873,-0.62793 -2.01152,-1.14944 -0.53214,-0.53214 -0.79822,-1.21861 -0.79821,-2.0594 m 2.65008,0 c 0,0.76629 0.28204,1.41019 0.84612,1.93169 0.56406,0.5215 1.22925,0.78225 1.99554,0.78225 0.70243,0 1.341,-0.1756 1.91573,-0.52682 0.57471,-0.35122 1.03235,-0.83015 1.37294,-1.4368 0.34056,-0.60664 0.51085,-1.24521 0.51086,-1.91572 l 0,-3.40041 c -0.98981,0 -2.0062,0.16497 -3.0492,0.49489 -1.03237,0.3193 -1.88913,0.82483 -2.57027,1.51662 -0.68115,0.69179 -1.02172,1.54323 -1.02172,2.5543" />
        <path
           inkscape:connector-curvature="0"
           id="path3856"
           d="m 307.21187,340.55758 c -1.2878,0 -2.46384,-0.3459 -3.52812,-1.03768 -1.0643,-0.70244 -1.89445,-1.62305 -2.49045,-2.76184 -0.58536,-1.13879 -0.87804,-2.34676 -0.87804,-3.62392 0,-1.31971 0.31929,-2.54365 0.95786,-3.67181 0.64922,-1.13878 1.52726,-2.04342 2.63413,-2.71394 1.10685,-0.67049 2.32547,-1.00574 3.65584,-1.00576 0.79821,2e-5 1.55386,0.17031 2.26694,0.51086 0.71307,0.32995 1.33036,0.79291 1.85187,1.38891 l 0,-6.80083 c -10e-6,-0.58534 -0.0905,-1.00574 -0.27139,-1.26119 -0.1703,-0.26605 -0.42041,-0.42569 -0.75033,-0.47893 -0.3193,-0.0638 -0.82484,-0.0958 -1.51662,-0.0958 l 0,-1.14944 4.83721,-0.35122 0,19.71601 c -1e-5,0.57472 0.0851,0.99512 0.25543,1.26119 0.18092,0.25543 0.43102,0.41508 0.75033,0.47893 0.32991,0.0532 0.84077,0.0798 1.53258,0.0798 l 0,1.14944 -4.933,0.36718 0,-2.05941 c -0.56408,0.64922 -1.23459,1.15476 -2.01151,1.51662 -0.77694,0.36186 -1.56452,0.54279 -2.36273,0.54279 m -3.33655,-3.20884 c 0.3725,0.71308 0.86739,1.28247 1.48469,1.70819 0.62792,0.42572 1.30907,0.63857 2.04344,0.63857 0.90464,0 1.73478,-0.26075 2.49044,-0.78225 0.75564,-0.5215 1.31971,-1.19733 1.69222,-2.02748 l 0,-7.83851 c -0.25544,-0.47892 -0.58005,-0.90464 -0.97382,-1.27715 -0.38316,-0.38313 -0.81952,-0.67581 -1.30908,-0.87804 -0.47894,-0.2022 -0.9898,-0.30331 -1.53258,-0.30332 -1.1388,1e-5 -2.05409,0.32462 -2.74588,0.97382 -0.69179,0.63859 -1.17604,1.45809 -1.45276,2.45852 -0.27672,1.00044 -0.41507,2.04877 -0.41507,3.14498 0,0.87273 0.0426,1.6337 0.12772,2.28291 0.0958,0.64922 0.29267,1.28247 0.59068,1.89976" />
        <path
           inkscape:connector-curvature="0"
           id="path3858"
           d="m 318.37098,340.1904 0,-1.14944 c 0.745,0 1.35697,-0.0585 1.8359,-0.1756 0.47893,-0.11708 0.71839,-0.40443 0.7184,-0.86208 l 0,-8.92409 c -10e-6,-0.84078 -0.16497,-1.35696 -0.4949,-1.54855 -0.31929,-0.19156 -0.95786,-0.28734 -1.91573,-0.28735 l 0,-1.14944 4.7095,-0.35122 0,12.26065 c -1e-5,0.45765 0.20753,0.745 0.62261,0.86208 0.41506,0.11707 0.9685,0.1756 1.66029,0.1756 l 0,1.14944 -7.13607,0 m 1.3889,-20.06723 c -1e-5,-0.47891 0.18092,-0.8993 0.54279,-1.26118 0.36185,-0.36184 0.77692,-0.54277 1.24522,-0.54279 0.30864,2e-5 0.60664,0.0798 0.894,0.23946 0.28736,0.15967 0.51086,0.38317 0.67051,0.67051 0.15963,0.28738 0.23946,0.58538 0.23946,0.894 0,0.46831 -0.18093,0.88338 -0.54279,1.24522 -0.36186,0.36188 -0.78226,0.54281 -1.26118,0.54279 -0.4683,2e-5 -0.88337,-0.18091 -1.24522,-0.54279 -0.36187,-0.36184 -0.5428,-0.77691 -0.54279,-1.24522" />
        <path
           inkscape:connector-curvature="0"
           id="path3860"
           d="m 334.60675,340.55758 c -1.30909,0 -2.52238,-0.32993 -3.63988,-0.98979 -1.11751,-0.6705 -2.00087,-1.56451 -2.65009,-2.68202 -0.64922,-1.1175 -0.97383,-2.33611 -0.97383,-3.65584 0,-1.00043 0.17561,-1.96361 0.52683,-2.88955 0.36186,-0.92593 0.87271,-1.75075 1.53258,-2.47448 0.6705,-0.73435 1.44743,-1.30375 2.3308,-1.70819 0.88335,-0.41506 1.84122,-0.6226 2.87359,-0.62261 1.341,10e-6 2.55961,0.35655 3.65584,1.06961 1.10685,0.70245 1.97957,1.64967 2.61816,2.84166 0.63856,1.18137 0.95785,2.44256 0.95786,3.78356 -1e-5,1.30908 -0.32462,2.5277 -0.97383,3.65584 -0.64923,1.11751 -1.53259,2.01152 -2.65008,2.68202 -1.10688,0.65986 -2.30953,0.98979 -3.60795,0.98979 m 0,-0.95786 c 1.74543,0 2.91082,-0.63326 3.4962,-1.89976 0.58534,-1.26651 0.87802,-2.87891 0.87804,-4.83721 -2e-5,-1.09621 -0.0586,-2.00086 -0.17561,-2.71395 -0.11709,-0.7237 -0.37252,-1.37824 -0.76629,-1.96362 -0.2448,-0.36184 -0.55877,-0.67581 -0.9419,-0.94189 -0.37251,-0.27671 -0.77162,-0.48424 -1.19733,-0.62262 -0.41508,-0.14898 -0.84612,-0.22348 -1.29311,-0.2235 -0.68116,2e-5 -1.33038,0.15434 -1.94766,0.46297 -0.60665,0.30866 -1.11219,0.75034 -1.51661,1.32504 -0.40444,0.61731 -0.66519,1.29845 -0.78226,2.04345 -0.10643,0.73437 -0.15965,1.61241 -0.15964,2.63412 -10e-6,1.22394 0.10642,2.32548 0.31929,3.30463 0.21285,0.9685 0.63857,1.78269 1.27715,2.44255 0.64921,0.65986 1.58578,0.98979 2.80973,0.98979" />
      </g>
      <g
         style="stroke:#f53d00;stroke-opacity:1"
         transform="translate(-0.10034874,0)"
         id="g3831">
        <path
           sodipodi:type="arc"
           style="fill:none;stroke:#f53d00;stroke-width:2;stroke-linecap:round;stroke-linejoin:round;stroke-miterlimit:4;stroke-opacity:1;stroke-dasharray:none;stroke-dashoffset:0"
           id="path3055"
           sodipodi:cx="456.33643"
           sodipodi:cy="290.45462"
           sodipodi:rx="10.606602"
           sodipodi:ry="10.606602"
           d="m 451.03312,281.26903 c 3.2817,-1.89468 7.32491,-1.89468 10.60661,0"
           sodipodi:start="4.1887902"
           sodipodi:end="5.2359878"
           sodipodi:open="true"
           transform="translate(-134.66877,28.944999)" />
        <path
           transform="translate(-134.66877,28.944999)"
           sodipodi:open="true"
           sodipodi:end="5.2359878"
           sodipodi:start="4.1887902"
           d="m 446.05545,272.64744 c 6.36189,-3.67304 14.20006,-3.67304 20.56196,0"
           sodipodi:ry="20.561958"
           sodipodi:rx="20.561958"
           sodipodi:cy="290.45462"
           sodipodi:cx="456.33643"
           id="path3825"
           style="fill:none;stroke:#f53d00;stroke-width:2;stroke-linecap:round;stroke-linejoin:round;stroke-miterlimit:4;stroke-opacity:1;stroke-dasharray:none;stroke-dashoffset:0"
           sodipodi:type="arc" />
        <path
           sodipodi:type="arc"
           style="fill:none;stroke:#f53d00;stroke-width:2;stroke-linecap:round;stroke-linejoin:round;stroke-miterlimit:4;stroke-opacity:1;stroke-dasharray:none;stroke-dashoffset:0"
           id="path3827"
           sodipodi:cx="456.33643"
           sodipodi:cy="290.45462"
           sodipodi:rx="31.633387"
           sodipodi:ry="31.633387"
           d="m 440.51973,263.0593 c 9.78741,-5.65076 21.84599,-5.65076 31.63339,0"
           sodipodi:start="4.1887902"
           sodipodi:end="5.2359878"
           sodipodi:open="true"
           transform="translate(-134.66877,28.944999)" />
        <path
           transform="translate(-134.66877,28.944999)"
           sodipodi:open="true"
           sodipodi:end="5.2359878"
           sodipodi:start="4.1887902"
           d="m 434.98402,253.47117 c 13.21291,-7.62848 29.4919,-7.62848 42.70481,0"
           sodipodi:ry="42.704815"
           sodipodi:rx="42.704815"
           sodipodi:cy="290.45462"
           sodipodi:cx="456.33643"
           id="path3829"
           style="fill:none;stroke:#f53d00;stroke-width:2;stroke-linecap:round;stroke-linejoin:round;stroke-miterlimit:4;stroke-opacity:1;stroke-dasharray:none;stroke-dashoffset:0"
           sodipodi:type="arc" />
      </g>
      <text
         sodipodi:linespacing="125%"
         id="text3839"
         y="353.58917"
         x="174.19638"
         style="font-size:12.73107052px;font-style:normal;font-variant:normal;font-weight:normal;font-stretch:normal;text-align:start;line-height:125%;letter-spacing:0px;word-spacing:0px;writing-mode:lr-tb;text-anchor:start;fill:#9d330c;fill-opacity:1;stroke:none;font-family:DejaVu Sans Mono;-inkscape-font-specification:DejaVu Sans Mono"
         xml:space="preserve"><tspan
           y="353.58917"
           x="174.19638"
           id="tspan3841"
           sodipodi:role="line">the gnu software radio</tspan></text>
    </g>
  </g>
</svg>
